<svg width="100" height="100" viewBox="0 0 100 100" fill="none" xmlns="http://www.w3.org/2000/svg">
<g clip-path="url(#clip0_21_837)">
<path d="M58.5407 60.5046C44.7555 68.4635 17.9438 71.457 8.67521 55.4033C0.570261 41.3651 16.1156 17.2164 29.1901 9.66785C40.8232 2.95146 59.4339 7.3802 67.5388 21.4184C75.6438 35.4566 71.6152 52.9561 58.5407 60.5046Z" fill="#C1DDFE"/>
<path d="M87.9697 58.2629C87.9697 73.4295 77.2182 87.6346 62.5294 91.7906C61.53 92.0698 60.4397 92.0698 59.4403 91.7906C44.7515 87.6346 34 73.4295 34 58.2629V44.6471C34 42.1038 35.8777 39.2194 38.2098 38.2579L55.0791 31.1863C58.8648 29.6046 63.1352 29.6046 66.9209 31.1863L83.7902 38.2579C86.092 39.2194 88 42.1038 88 44.6471L87.9697 58.2629Z" stroke="black" stroke-width="2.5" stroke-linecap="round" stroke-linejoin="round"/>
<path d="M61.0001 62.4584C62.5472 62.4584 64.0309 61.8438 65.1249 60.7498C66.2188 59.6558 66.8334 58.1721 66.8334 56.625C66.8334 55.0779 66.2188 53.5942 65.1249 52.5002C64.0309 51.4063 62.5472 50.7917 61.0001 50.7917C59.453 50.7917 57.9693 51.4063 56.8753 52.5002C55.7813 53.5942 55.1667 55.0779 55.1667 56.625C55.1667 58.1721 55.7813 59.6558 56.8753 60.7498C57.9693 61.8438 59.453 62.4584 61.0001 62.4584ZM61.0001 62.4584V71.2084" stroke="black" stroke-width="2.5" stroke-miterlimit="10" stroke-linecap="round" stroke-linejoin="round"/>
</g>
<defs>
<clipPath id="clip0_21_837">
<rect width="100" height="100" fill="white"/>
</clipPath>
</defs>
</svg>
