<svg width="100" height="100" viewBox="0 0 100 100" fill="none" xmlns="http://www.w3.org/2000/svg">
<g clip-path="url(#clip0_21_857)">
<path d="M58.5407 60.5046C44.7555 68.4635 17.9438 71.457 8.67521 55.4033C0.570261 41.3651 16.1156 17.2164 29.1901 9.66785C40.8232 2.95146 59.4339 7.3802 67.5388 21.4184C75.6438 35.4566 71.6152 52.9561 58.5407 60.5046Z" fill="#C1DDFE"/>
<path d="M63.0001 51.3333V65.9167M88.5209 66.6458C88.5209 80.7333 77.0876 92.1667 63.0001 92.1667C48.9126 92.1667 37.4792 80.7333 37.4792 66.6458C37.4792 52.5583 48.9126 41.125 63.0001 41.125C77.0876 41.125 88.5209 52.5583 88.5209 66.6458Z" stroke="black" stroke-width="2.5" stroke-linecap="round" stroke-linejoin="round"/>
<path d="M54.25 31.8333H71.75" stroke="black" stroke-width="2.5" stroke-miterlimit="10" stroke-linecap="round" stroke-linejoin="round"/>
</g>
<defs>
<clipPath id="clip0_21_857">
<rect width="100" height="100" fill="white"/>
</clipPath>
</defs>
</svg>
