<svg width="100" height="100" viewBox="0 0 100 100" fill="none" xmlns="http://www.w3.org/2000/svg">
<g clip-path="url(#clip0_28_4)">
<path d="M58.5407 60.5046C44.7555 68.4635 17.9438 71.457 8.67521 55.4033C0.570261 41.3651 16.1156 17.2164 29.1901 9.66785C40.8232 2.95146 59.4339 7.3802 67.5388 21.4184C75.6438 35.4566 71.6152 52.9561 58.5407 60.5046Z" fill="#FF7C78"/>
<path d="M45.45 80.888C53.4713 75.3413 59.786 69.9867 64.394 64.824C69.0447 59.6613 71.37 54.712 71.37 49.976C71.37 46.8613 70.538 44.3227 68.874 42.36C67.2527 40.3973 64.586 39.416 60.874 39.416C57.162 39.416 54.3247 40.5467 52.362 42.808C50.3993 45.0693 49.29 48.056 49.034 51.768H46.218C46.5167 47.0747 47.9673 43.4267 50.57 40.824C53.1727 38.2213 56.6073 36.92 60.874 36.92C64.7567 36.92 67.9353 38.008 70.41 40.184C72.9273 42.36 74.186 45.6027 74.186 49.912C74.186 55.2453 71.7327 60.6213 66.826 66.04C61.962 71.4587 56.394 76.2373 50.122 80.376H75.658V82.808H45.45V80.888Z" fill="black"/>
</g>
<defs>
<clipPath id="clip0_28_4">
<rect width="100" height="100" fill="white"/>
</clipPath>
</defs>
</svg>
