<svg width="100" height="100" viewBox="0 0 100 100" fill="none" xmlns="http://www.w3.org/2000/svg">
<g clip-path="url(#clip0_28_7)">
<path d="M58.5407 60.5046C44.7555 68.4635 17.9438 71.457 8.67521 55.4033C0.570261 41.3651 16.1156 17.2164 29.1901 9.66785C40.8232 2.95146 59.4339 7.3802 67.5388 21.4184C75.6438 35.4566 71.6152 52.9561 58.5407 60.5046Z" fill="#FF7C78"/>
<path d="M45.5335 49.4C45.9175 45.5173 47.4108 42.4667 50.0135 40.248C52.6588 38.0293 56.1362 36.92 60.4455 36.92C63.2188 36.92 65.5868 37.432 67.5495 38.456C69.5122 39.4373 71.0055 40.7813 72.0295 42.488C73.0535 44.1947 73.5655 46.136 73.5655 48.312C73.5655 51.0427 72.7335 53.4107 71.0695 55.416C69.4055 57.3787 66.8668 58.552 63.4535 58.936V59.32C66.7388 59.832 69.3842 61.0907 71.3895 63.096C73.3948 65.1013 74.3975 67.7893 74.3975 71.16C74.3975 74.744 73.2028 77.688 70.8135 79.992C68.4668 82.2533 65.0108 83.384 60.4455 83.384C56.1362 83.384 52.5735 82.232 49.7575 79.928C46.9842 77.624 45.3202 74.36 44.7655 70.136H47.5815C48.0935 73.2933 49.4588 75.8747 51.6775 77.88C53.8962 79.8427 56.8188 80.824 60.4455 80.824C64.1148 80.824 66.8882 79.9067 68.7655 78.072C70.6855 76.2373 71.6455 73.8693 71.6455 70.968C71.6455 67.4693 70.3015 64.8453 67.6135 63.096C64.9682 61.3467 61.1708 60.472 56.2215 60.472H55.0055V57.976H56.2855C65.9282 57.9333 70.7495 54.776 70.7495 48.504C70.7495 45.7733 69.8322 43.576 67.9975 41.912C66.2055 40.248 63.6668 39.416 60.3815 39.416C57.1815 39.416 54.4722 40.2693 52.2535 41.976C50.0775 43.64 48.7762 46.1147 48.3495 49.4H45.5335Z" fill="black"/>
</g>
<defs>
<clipPath id="clip0_28_7">
<rect width="100" height="100" fill="white"/>
</clipPath>
</defs>
</svg>
