<svg width="175" height="75" viewBox="0 0 175 75" fill="none" xmlns="http://www.w3.org/2000/svg">
<g clip-path="url(#clip0_3_585)">
<path d="M53.4213 59.5885C39.6361 67.5474 12.8244 70.5409 3.55582 54.4872C-4.54912 40.449 10.9963 16.3003 24.0707 8.75174C35.7039 2.03535 54.3145 6.46409 62.4194 20.5023C70.5244 34.5405 66.4958 52.04 53.4213 59.5885Z" fill="#C1DDFE"/>
<path d="M43.824 51.192C42.16 51.192 40.56 50.9253 39.024 50.392C37.5093 49.8373 36.336 49.1333 35.504 48.28L36.432 46.456C37.2213 47.224 38.2773 47.8747 39.6 48.408C40.944 48.92 42.352 49.176 43.824 49.176C45.232 49.176 46.3733 49.0053 47.248 48.664C48.144 48.3013 48.7947 47.8213 49.2 47.224C49.6267 46.6267 49.84 45.9653 49.84 45.24C49.84 44.3653 49.584 43.6613 49.072 43.128C48.5813 42.5947 47.9307 42.1787 47.12 41.88C46.3093 41.56 45.4133 41.2827 44.432 41.048C43.4507 40.8133 42.4693 40.568 41.488 40.312C40.5067 40.0347 39.6 39.672 38.768 39.224C37.9573 38.776 37.296 38.1893 36.784 37.464C36.2933 36.7173 36.048 35.7467 36.048 34.552C36.048 33.4427 36.336 32.4293 36.912 31.512C37.5093 30.5733 38.416 29.8267 39.632 29.272C40.848 28.696 42.4053 28.408 44.304 28.408C45.5627 28.408 46.8107 28.5893 48.048 28.952C49.2853 29.2933 50.352 29.7733 51.248 30.392L50.448 32.28C49.488 31.64 48.464 31.1707 47.376 30.872C46.3093 30.5733 45.2747 30.424 44.272 30.424C42.928 30.424 41.8187 30.6053 40.944 30.968C40.0693 31.3307 39.4187 31.8213 38.992 32.44C38.5867 33.0373 38.384 33.72 38.384 34.488C38.384 35.3627 38.6293 36.0667 39.12 36.6C39.632 37.1333 40.2933 37.5493 41.104 37.848C41.936 38.1467 42.8427 38.4133 43.824 38.648C44.8053 38.8827 45.776 39.1387 46.736 39.416C47.7173 39.6933 48.6133 40.056 49.424 40.504C50.256 40.9307 50.9173 41.5067 51.408 42.232C51.92 42.9573 52.176 43.9067 52.176 45.08C52.176 46.168 51.8773 47.1813 51.28 48.12C50.6827 49.0373 49.7653 49.784 48.528 50.36C47.312 50.9147 45.744 51.192 43.824 51.192ZM67.3835 51V47.288L67.2875 46.68V40.472C67.2875 39.0427 66.8822 37.944 66.0715 37.176C65.2822 36.408 64.0982 36.024 62.5195 36.024C61.4315 36.024 60.3968 36.2053 59.4155 36.568C58.4342 36.9307 57.6022 37.4107 56.9195 38.008L55.8955 36.312C56.7488 35.5867 57.7728 35.032 58.9675 34.648C60.1622 34.2427 61.4208 34.04 62.7435 34.04C64.9195 34.04 66.5942 34.584 67.7675 35.672C68.9622 36.7387 69.5595 38.3707 69.5595 40.568V51H67.3835ZM61.5915 51.16C60.3328 51.16 59.2342 50.9573 58.2955 50.552C57.3782 50.1253 56.6742 49.5493 56.1835 48.824C55.6928 48.0773 55.4475 47.224 55.4475 46.264C55.4475 45.3893 55.6502 44.6 56.0555 43.896C56.4822 43.1707 57.1648 42.5947 58.1035 42.168C59.0635 41.72 60.3435 41.496 61.9435 41.496H67.7355V43.192H62.0075C60.3862 43.192 59.2555 43.48 58.6155 44.056C57.9968 44.632 57.6875 45.3467 57.6875 46.2C57.6875 47.16 58.0608 47.928 58.8075 48.504C59.5542 49.08 60.5995 49.368 61.9435 49.368C63.2235 49.368 64.3222 49.08 65.2395 48.504C66.1782 47.9067 66.8608 47.0533 67.2875 45.944L67.7995 47.512C67.3728 48.6213 66.6262 49.5067 65.5595 50.168C64.5142 50.8293 63.1915 51.16 61.5915 51.16ZM76.1145 51V32.088C76.1145 30.5947 76.5518 29.3893 77.4265 28.472C78.3012 27.5547 79.5598 27.096 81.2025 27.096C81.8425 27.096 82.4612 27.1813 83.0585 27.352C83.6558 27.5227 84.1572 27.7893 84.5625 28.152L83.7945 29.848C83.4745 29.5707 83.1012 29.368 82.6745 29.24C82.2478 29.0907 81.7892 29.016 81.2985 29.016C80.3385 29.016 79.6025 29.2827 79.0905 29.816C78.5785 30.3493 78.3225 31.1387 78.3225 32.184V34.744L78.3865 35.8V51H76.1145ZM73.1065 36.088V34.2H83.5065V36.088H73.1065ZM93.429 51.16C91.6797 51.16 90.1437 50.7973 88.821 50.072C87.4983 49.3253 86.4637 48.312 85.717 47.032C84.9703 45.7307 84.597 44.248 84.597 42.584C84.597 40.92 84.949 39.448 85.653 38.168C86.3783 36.888 87.3597 35.8853 88.597 35.16C89.8557 34.4133 91.2637 34.04 92.821 34.04C94.3997 34.04 95.797 34.4027 97.013 35.128C98.2503 35.832 99.221 36.8347 99.925 38.136C100.629 39.416 100.981 40.8987 100.981 42.584C100.981 42.6907 100.97 42.808 100.949 42.936C100.949 43.0427 100.949 43.16 100.949 43.288H86.325V41.592H99.733L98.837 42.264C98.837 41.048 98.5703 39.9707 98.037 39.032C97.525 38.072 96.821 37.3253 95.925 36.792C95.029 36.2587 93.9943 35.992 92.821 35.992C91.669 35.992 90.6343 36.2587 89.717 36.792C88.7997 37.3253 88.085 38.072 87.573 39.032C87.061 39.992 86.805 41.0907 86.805 42.328V42.68C86.805 43.96 87.0823 45.0907 87.637 46.072C88.213 47.032 89.0023 47.7893 90.005 48.344C91.029 48.8773 92.1917 49.144 93.493 49.144C94.517 49.144 95.4663 48.9627 96.341 48.6C97.237 48.2373 98.005 47.6827 98.645 46.936L99.925 48.408C99.1783 49.304 98.2397 49.9867 97.109 50.456C95.9997 50.9253 94.773 51.16 93.429 51.16ZM112.262 51.192C110.598 51.192 108.998 50.9253 107.462 50.392C105.947 49.8373 104.774 49.1333 103.942 48.28L104.87 46.456C105.659 47.224 106.715 47.8747 108.038 48.408C109.382 48.92 110.79 49.176 112.262 49.176C113.67 49.176 114.811 49.0053 115.686 48.664C116.582 48.3013 117.232 47.8213 117.638 47.224C118.064 46.6267 118.278 45.9653 118.278 45.24C118.278 44.3653 118.022 43.6613 117.51 43.128C117.019 42.5947 116.368 42.1787 115.558 41.88C114.747 41.56 113.851 41.2827 112.87 41.048C111.888 40.8133 110.907 40.568 109.926 40.312C108.944 40.0347 108.038 39.672 107.206 39.224C106.395 38.776 105.734 38.1893 105.222 37.464C104.731 36.7173 104.486 35.7467 104.486 34.552C104.486 33.4427 104.774 32.4293 105.35 31.512C105.947 30.5733 106.854 29.8267 108.07 29.272C109.286 28.696 110.843 28.408 112.742 28.408C114 28.408 115.248 28.5893 116.486 28.952C117.723 29.2933 118.79 29.7733 119.686 30.392L118.885 32.28C117.926 31.64 116.902 31.1707 115.814 30.872C114.747 30.5733 113.712 30.424 112.71 30.424C111.366 30.424 110.256 30.6053 109.382 30.968C108.507 31.3307 107.856 31.8213 107.43 32.44C107.024 33.0373 106.822 33.72 106.822 34.488C106.822 35.3627 107.067 36.0667 107.558 36.6C108.07 37.1333 108.731 37.5493 109.542 37.848C110.374 38.1467 111.28 38.4133 112.262 38.648C113.243 38.8827 114.214 39.1387 115.174 39.416C116.155 39.6933 117.051 40.056 117.862 40.504C118.694 40.9307 119.355 41.5067 119.846 42.232C120.358 42.9573 120.614 43.9067 120.614 45.08C120.614 46.168 120.315 47.1813 119.718 48.12C119.12 49.0373 118.203 49.784 116.966 50.36C115.75 50.9147 114.182 51.192 112.262 51.192ZM133.965 51.16C132.514 51.16 131.202 50.8293 130.029 50.168C128.856 49.4853 127.917 48.5147 127.213 47.256C126.53 45.976 126.189 44.4187 126.189 42.584C126.189 40.7493 126.53 39.2027 127.213 37.944C127.896 36.664 128.824 35.6933 129.997 35.032C131.17 34.3707 132.493 34.04 133.965 34.04C135.565 34.04 136.994 34.4027 138.253 35.128C139.533 35.832 140.536 36.8347 141.261 38.136C141.986 39.416 142.349 40.8987 142.349 42.584C142.349 44.2907 141.986 45.784 141.261 47.064C140.536 48.344 139.533 49.3467 138.253 50.072C136.994 50.7973 135.565 51.16 133.965 51.16ZM125.293 57.208V34.2H127.469V39.256L127.245 42.616L127.565 46.008V57.208H125.293ZM133.805 49.144C135 49.144 136.066 48.8773 137.005 48.344C137.944 47.7893 138.69 47.0213 139.245 46.04C139.8 45.0373 140.077 43.8853 140.077 42.584C140.077 41.2827 139.8 40.1413 139.245 39.16C138.69 38.1787 137.944 37.4107 137.005 36.856C136.066 36.3013 135 36.024 133.805 36.024C132.61 36.024 131.533 36.3013 130.573 36.856C129.634 37.4107 128.888 38.1787 128.333 39.16C127.8 40.1413 127.533 41.2827 127.533 42.584C127.533 43.8853 127.8 45.0373 128.333 46.04C128.888 47.0213 129.634 47.7893 130.573 48.344C131.533 48.8773 132.61 49.144 133.805 49.144ZM153.829 51.16C152.207 51.16 150.746 50.7973 149.445 50.072C148.165 49.3253 147.151 48.312 146.405 47.032C145.658 45.7307 145.285 44.248 145.285 42.584C145.285 40.8987 145.658 39.416 146.405 38.136C147.151 36.856 148.165 35.8533 149.445 35.128C150.725 34.4027 152.186 34.04 153.829 34.04C155.493 34.04 156.965 34.4027 158.245 35.128C159.546 35.8533 160.559 36.856 161.285 38.136C162.031 39.416 162.405 40.8987 162.405 42.584C162.405 44.248 162.031 45.7307 161.285 47.032C160.559 48.312 159.546 49.3253 158.245 50.072C156.943 50.7973 155.471 51.16 153.829 51.16ZM153.829 49.144C155.045 49.144 156.122 48.8773 157.061 48.344C157.999 47.7893 158.735 47.0213 159.269 46.04C159.823 45.0373 160.101 43.8853 160.101 42.584C160.101 41.2613 159.823 40.1093 159.269 39.128C158.735 38.1467 157.999 37.3893 157.061 36.856C156.122 36.3013 155.055 36.024 153.861 36.024C152.666 36.024 151.599 36.3013 150.661 36.856C149.722 37.3893 148.975 38.1467 148.421 39.128C147.866 40.1093 147.589 41.2613 147.589 42.584C147.589 43.8853 147.866 45.0373 148.421 46.04C148.975 47.0213 149.722 47.7893 150.661 48.344C151.599 48.8773 152.655 49.144 153.829 49.144ZM172.355 51.16C170.776 51.16 169.56 50.7333 168.707 49.88C167.854 49.0267 167.427 47.8213 167.427 46.264V30.488H169.699V46.136C169.699 47.1173 169.944 47.8747 170.435 48.408C170.947 48.9413 171.672 49.208 172.611 49.208C173.614 49.208 174.446 48.92 175.107 48.344L175.907 49.976C175.459 50.3813 174.915 50.68 174.275 50.872C173.656 51.064 173.016 51.16 172.355 51.16ZM164.419 36.088V34.2H174.819V36.088H164.419Z" fill="black"/>
<circle cx="153.95" cy="42.55" r="6.75" fill="#C1DDFE"/>
</g>
<defs>
<clipPath id="clip0_3_585">
<rect width="175" height="75" fill="white"/>
</clipPath>
</defs>
</svg>
